<svg width="24" height="24" viewBox="0 0 24 24" fill="none" xmlns="http://www.w3.org/2000/svg">
<g clip-path="url(#clip0_7173_8781)">
<path fill-rule="evenodd" clip-rule="evenodd" d="M18.9509 11.8924C19.1299 14.9912 17.5048 18.1325 14.9661 19.9286C14.6483 20.2065 13.9352 20.4816 13.466 20.6429C13.4343 20.6538 13.4023 20.6648 13.37 20.676C12.9252 20.8297 12.4322 21 11.966 21C11.5935 21 11.2134 20.878 10.8426 20.7589C10.7158 20.7182 10.59 20.6779 10.466 20.6429C9.97951 20.5055 9.31504 20.1899 8.96604 19.9286C6.22605 18.2637 5.17701 15.3385 5.00069 12.2378C4.83102 9.64963 4.96993 9.822 5.00068 8.35726C4.94559 12.2743 4.9559 11.6986 5.00068 8.35726C5.00068 7.85737 6.91672 7.85725 6.91672 8.35725C6.97854 9.73741 6.95441 7.61119 6.91672 8.87609C6.87403 10.3086 6.85209 10.6302 6.9551 12.1914C7.14391 15.4477 8.13866 17.7255 9.96604 18.8358C11.0087 19.4694 12.7799 19.5195 13.7462 18.8358C15.4391 17.6382 17.1813 15.198 16.9931 11.9411C16.8447 8.99983 16.951 8.35717 16.951 8.35717C16.951 7.85717 18.951 7.85719 18.951 8.35719C18.951 12.8572 18.9588 8.02969 18.951 8.35719C18.9162 9.80263 18.9511 9.34169 18.9509 11.8924Z" fill="#4D6575"/>
</g>
<path d="M5.10793 5.80789C4.96402 5.91399 4.96402 6.086 5.10793 6.192L7.45253 7.9204C7.59639 8.0265 7.82967 8.0265 7.97353 7.9204C8.11742 7.8144 8.11742 7.6424 7.97353 7.5364L5.88945 5.99999L7.97353 4.46359C8.11742 4.35759 8.11742 4.18559 7.97353 4.07959C7.82967 3.97347 7.59639 3.97347 7.45253 4.07959L5.10793 5.80789ZM18.8921 6.192C19.036 6.086 19.036 5.91399 18.8921 5.80789L16.5474 4.07959C16.4035 3.97347 16.1703 3.97347 16.0264 4.07959C15.8825 4.18559 15.8825 4.35759 16.0264 4.46359L18.1106 5.99999L16.0264 7.5364C15.8825 7.6424 15.8825 7.8144 16.0264 7.9204C16.1703 8.0265 16.4035 8.0265 16.5474 7.9204L18.8921 6.192ZM5.36843 6.2716H18.6315V5.72839H5.36843V6.2716Z" fill="#4D6575"/>
<defs>
<clipPath id="clip0_7173_8781">
<rect width="14" height="18" fill="white" transform="translate(5 3)"/>
</clipPath>
</defs>
</svg>
