<svg width="24" height="24" viewBox="0 0 24 24" fill="none" xmlns="http://www.w3.org/2000/svg">
<g clip-path="url(#clip0_7173_8793)">
<path d="M19 6.00006H13C12.0868 6.00341 11.1921 6.25743 10.4134 6.73443C9.63465 7.21142 9.00186 7.89308 8.584 8.70506C7.9844 8.24985 7.25282 8.00236 6.5 8.00006C5.57174 8.00006 4.6815 8.36881 4.02513 9.02519C3.36875 9.68157 3 10.5718 3 11.5001C3.00293 12.0201 3.12289 12.5327 3.351 13.0001H2V3.00006C2 2.73484 1.89464 2.48049 1.70711 2.29295C1.51957 2.10542 1.26522 2.00006 1 2.00006C0.734784 2.00006 0.48043 2.10542 0.292893 2.29295C0.105357 2.48049 0 2.73484 0 3.00006L0 21.0001C0 21.2653 0.105357 21.5196 0.292893 21.7072C0.48043 21.8947 0.734784 22.0001 1 22.0001C1.26522 22.0001 1.51957 21.8947 1.70711 21.7072C1.89464 21.5196 2 21.2653 2 21.0001V19.0001H22V21.0001C22 21.2653 22.1054 21.5196 22.2929 21.7072C22.4804 21.8947 22.7348 22.0001 23 22.0001C23.2652 22.0001 23.5196 21.8947 23.7071 21.7072C23.8946 21.5196 24 21.2653 24 21.0001V11.0001C23.9984 9.67447 23.4711 8.40362 22.5338 7.46628C21.5964 6.52894 20.3256 6.00165 19 6.00006ZM10 11.0001C10 10.2044 10.3161 9.44135 10.8787 8.87874C11.4413 8.31613 12.2044 8.00006 13 8.00006H19C19.7956 8.00006 20.5587 8.31613 21.1213 8.87874C21.6839 9.44135 22 10.2044 22 11.0001V13.0001H10V11.0001ZM5 11.5001C5 11.2034 5.08797 10.9134 5.2528 10.6667C5.41762 10.42 5.65189 10.2278 5.92597 10.1142C6.20006 10.0007 6.50166 9.97101 6.79264 10.0289C7.08361 10.0868 7.35088 10.2296 7.56066 10.4394C7.77044 10.6492 7.9133 10.9165 7.97118 11.2074C8.02906 11.4984 7.99935 11.8 7.88582 12.0741C7.77229 12.3482 7.58003 12.5824 7.33336 12.7473C7.08668 12.9121 6.79667 13.0001 6.5 13.0001C6.10218 13.0001 5.72064 12.842 5.43934 12.5607C5.15804 12.2794 5 11.8979 5 11.5001ZM2 17.0001V15.0001H22V17.0001H2Z" fill="#4D6575"/>
</g>
<defs>
<clipPath id="clip0_7173_8793">
<rect width="24" height="24" fill="white"/>
</clipPath>
</defs>
</svg>
