<svg width="24" height="24" viewBox="0 0 24 24" fill="none" xmlns="http://www.w3.org/2000/svg">
<path d="M15 19.798C16.447 19.948 18.4 20.412 19.438 19.088C20 18.371 20 17.278 20 15.093V8.907C20 6.721 20 5.629 19.438 4.912C18.4 3.588 16.448 4.052 15 4.202M12 13V11M19 19.727H22M2 20H5M4 9.204C4 7.131 4 6.094 4.358 5.253C4.64804 4.55904 5.11911 3.9557 5.722 3.506C6.433 2.98 7.388 2.794 9.297 2.423C11.282 2.038 12.274 1.845 13.047 2.153C13.6995 2.41813 14.2406 2.90025 14.579 3.518C15 4.275 15 5.353 15 7.51V16.492C15 18.648 15 19.726 14.579 20.482C14.241 21.1005 13.6999 21.5834 13.047 21.849C12.274 22.156 11.282 21.963 9.297 21.578C7.387 21.207 6.433 21.021 5.722 20.495C5.11911 20.0453 4.64804 19.442 4.358 18.748C4 17.905 4 16.87 4 14.796V9.204Z" stroke="#4D6575" stroke-width="2" stroke-linecap="round" stroke-linejoin="round"/>
</svg>
