<svg width="24" height="24" viewBox="0 0 24 24" fill="none" xmlns="http://www.w3.org/2000/svg">
<g clip-path="url(#clip0_7173_8785)">
<path d="M15.0004 20.5714C17.5391 18.7753 19.1642 15.634 18.9852 12.5353C18.8256 9.43141 18.9851 4.00262 18.9851 4.00262C18.9851 4.00262 16.5005 4.00006 15.5005 4.00006C16.4026 4.00006 19.2602 4.00198 17.0274 4.00086L16.5005 4.00006L8.50047 4.0013C7.7178 4.01888 8.0005 4.00016 7.5005 4.00007C7.57621 4.00019 5.72705 4.00078 5.00024 4.00006C4.46569 4.49759 4.83162 9.77712 5.03507 12.8807C5.2114 15.9813 6.26044 18.9065 9.00043 20.5714C9.34943 20.8327 10.0139 21.1483 10.5004 21.2857C10.987 21.4231 11.5004 21.6428 12.0004 21.6428C12.5004 21.6428 13.0312 21.4469 13.5004 21.2857C13.9696 21.1244 14.6827 20.8493 15.0004 20.5714ZM6.98949 12.8343C6.79551 9.89448 6.98949 4.00102 6.98949 4.00102C6.98949 4.00102 7.0005 3.99999 7.5005 4.00007C7.0005 4.00007 6.48949 4.00094 6.98949 4.00102L8.0005 4.00262C8.0005 4.00262 6.60696 4.00101 6.98949 4.00102C7.18083 4.00103 16.1295 4.00012 16.1295 4.00012C16.4822 4.01506 20.0272 4.00255 17.0274 4.00086C17.0274 4.00086 16.879 9.64269 17.0274 12.584C17.2156 15.8408 15.4734 18.281 13.7806 19.4786C12.8143 20.1623 11.0431 20.1122 10.0004 19.4786C8.17305 18.3683 7.1783 16.0905 6.98949 12.8343Z" fill="#4D6575"/>
<path d="M12.1921 9.06167C12.086 8.97944 11.914 8.97944 11.808 9.06167L10.0796 10.4014C9.97348 10.4837 9.97348 10.617 10.0796 10.6992C10.1856 10.7814 10.3576 10.7814 10.4636 10.6992L12 9.50826L13.5364 10.6992C13.6424 10.7814 13.8144 10.7814 13.9204 10.6992C14.0265 10.617 14.0265 10.4837 13.9204 10.4014L12.1921 9.06167ZM11.808 16.9384C11.914 17.0206 12.086 17.0206 12.1921 16.9384L13.9204 15.5986C14.0265 15.5164 14.0265 15.3831 13.9204 15.3009C13.8144 15.2186 13.6424 15.2186 13.5364 15.3009L12 16.4918L10.4636 15.3009C10.3576 15.2186 10.1856 15.2186 10.0796 15.3009C9.97348 15.3831 9.97348 15.5164 10.0796 15.5986L11.808 16.9384ZM11.7284 9.21053V16.7895H12.2716V9.21053H11.7284Z" fill="#4D6575"/>
</g>
<path d="M23.6932 5.56509C23.516 5.3678 23.2677 5.24896 23.0029 5.2347C22.7381 5.22045 22.4785 5.31195 22.2812 5.48909C22.0177 5.69977 21.7096 5.84746 21.3803 5.92086C21.051 5.99426 20.7093 5.99145 20.3813 5.91262C20.0532 5.8338 19.7476 5.68106 19.4876 5.46606C19.2276 5.25106 19.0202 4.97949 18.8812 4.67209C18.8345 4.53085 18.7561 4.40213 18.6522 4.29573C18.5482 4.18934 18.4213 4.10806 18.2812 4.05809C18.0314 3.97001 17.7568 3.98467 17.5177 4.09885C17.2787 4.21303 17.0947 4.4174 17.0062 4.66709C16.8208 5.05734 16.5286 5.38709 16.1635 5.61814C15.7984 5.84919 15.3753 5.97209 14.9433 5.97261C14.5112 5.97314 14.0878 5.85126 13.7222 5.62109C13.3565 5.39093 13.0636 5.06189 12.8772 4.67209C12.8303 4.53081 12.752 4.40203 12.648 4.29548C12.5441 4.18894 12.4173 4.10742 12.2772 4.05709C12.1534 4.01335 12.0221 3.99443 11.891 4.00142C11.7598 4.0084 11.6313 4.04115 11.5128 4.09779C11.3944 4.15444 11.2882 4.23387 11.2004 4.33155C11.1126 4.42923 11.0449 4.54325 11.0012 4.66709C10.8157 5.05707 10.5235 5.38654 10.1585 5.6174C9.79353 5.84825 9.37064 5.97104 8.93877 5.97157C8.50691 5.97209 8.08372 5.85032 7.71818 5.62035C7.35263 5.39039 7.05968 5.06162 6.8732 4.67209C6.82634 4.53081 6.74797 4.40203 6.64403 4.29548C6.54008 4.18894 6.41328 4.10742 6.2732 4.05709C6.14936 4.01335 6.01812 3.99443 5.88697 4.00142C5.75583 4.0084 5.62734 4.04115 5.50885 4.09779C5.39036 4.15444 5.28419 4.23387 5.1964 4.33155C5.10861 4.42923 5.04092 4.54325 4.9972 4.66709C4.86046 4.97507 4.6548 5.24752 4.39609 5.46342C4.13737 5.67933 3.83252 5.83292 3.50505 5.91235C3.17757 5.99178 2.83623 5.99492 2.50735 5.92154C2.17847 5.84815 1.87084 5.7002 1.6082 5.48909C1.40785 5.33558 1.15687 5.26351 0.905603 5.28734C0.654337 5.31116 0.421373 5.42912 0.253449 5.61755C0.0855248 5.80597 -0.00493839 6.05092 0.000208127 6.30326C0.00535464 6.55561 0.10573 6.79667 0.281197 6.97809C1.07906 7.6631 2.10609 8.02172 3.15693 7.98223C4.20778 7.94274 5.205 7.50805 5.9492 6.76509C6.75366 7.54393 7.82948 7.97938 8.9492 7.97938C10.0689 7.97938 11.1447 7.54393 11.9492 6.76509C12.7535 7.54416 13.8294 7.97977 14.9492 7.97977C16.069 7.97977 17.1449 7.54416 17.9492 6.76509C18.6933 7.50819 19.6904 7.94306 20.7413 7.98274C21.7921 8.02241 22.8192 7.66397 23.6172 6.97909C23.7152 6.89133 23.7949 6.7851 23.8518 6.66649C23.9086 6.54787 23.9415 6.41921 23.9486 6.28786C23.9556 6.15651 23.9367 6.02505 23.8929 5.90103C23.8491 5.777 23.7812 5.66284 23.6932 5.56509Z" fill="#4D6575"/>
<defs>
<clipPath id="clip0_7173_8785">
<rect width="14" height="20" fill="white" transform="translate(5 2)"/>
</clipPath>
</defs>
</svg>
