<svg width="24" height="24" viewBox="0 0 24 24" fill="none" xmlns="http://www.w3.org/2000/svg">
<path d="M21.7557 4.85862C21.5993 4.69459 21.3871 4.60244 21.1659 4.60244C20.9447 4.60244 20.7326 4.69459 20.5761 4.85862L18.0951 7.46C17.9386 7.62406 17.8507 7.84658 17.8506 8.07863V17.75C17.8506 17.9821 17.7628 18.2046 17.6063 18.3687C17.4499 18.5328 17.2377 18.625 17.0164 18.625H15.3479V6.375C15.3466 5.2151 14.9067 4.10311 14.1247 3.28294C13.3428 2.46277 12.2826 2.00139 11.1767 2L6.17122 2C5.06535 2.00139 4.00515 2.46277 3.22319 3.28294C2.44122 4.10311 2.00132 5.2151 2 6.375L2 18.625C2.00132 19.7849 2.44122 20.8969 3.22319 21.7171C4.00515 22.5372 5.06535 22.9986 6.17122 23H11.1767C11.9874 22.9989 12.7802 22.75 13.4582 22.2838C14.1362 21.8176 14.6699 21.1543 14.9942 20.375H17.0164C17.6802 20.375 18.3167 20.0984 18.7861 19.6062C19.2555 19.1139 19.5191 18.4462 19.5191 17.75V8.44088L21.7557 6.09588C21.9121 5.93179 22 5.70927 22 5.47725C22 5.24523 21.9121 5.02271 21.7557 4.85862ZM6.17122 3.75H11.1767C11.8405 3.75 12.477 4.02656 12.9464 4.51884C13.4157 5.01113 13.6794 5.67881 13.6794 6.375V9.875H12.0109C12.0077 9.03752 11.7158 8.22953 11.1892 7.6L11.7665 6.99362C11.8462 6.91291 11.9097 6.81636 11.9535 6.7096C11.9972 6.60285 12.0202 6.48803 12.0212 6.37185C12.0221 6.25567 12.001 6.14045 11.9591 6.03292C11.9171 5.92538 11.8552 5.82769 11.7768 5.74553C11.6985 5.66337 11.6054 5.5984 11.5028 5.55441C11.4003 5.51041 11.2905 5.48827 11.1797 5.48928C11.0689 5.49029 10.9595 5.51443 10.8577 5.56029C10.7559 5.60614 10.6638 5.6728 10.5869 5.75638L9.79101 6.59113C9.28871 6.39582 8.74868 6.33149 8.21741 6.40369C7.68615 6.47588 7.17958 6.68243 6.74132 7.00555C6.30306 7.32867 5.94625 7.75868 5.70161 8.25854C5.45697 8.75841 5.33183 9.31315 5.33698 9.875H3.66849V6.375C3.66849 5.67881 3.93217 5.01113 4.40152 4.51884C4.87088 4.02656 5.50746 3.75 6.17122 3.75ZM7.00547 9.875C7.00547 9.41087 7.18125 8.96575 7.49416 8.63756C7.80706 8.30937 8.23145 8.125 8.67396 8.125C9.11647 8.125 9.54085 8.30937 9.85376 8.63756C10.1667 8.96575 10.3424 9.41087 10.3424 9.875H7.00547ZM11.1767 21.25H6.17122C5.50746 21.25 4.87088 20.9734 4.40152 20.4812C3.93217 19.9889 3.66849 19.3212 3.66849 18.625V11.625H13.6794V18.625C13.6794 19.3212 13.4157 19.9889 12.9464 20.4812C12.477 20.9734 11.8405 21.25 11.1767 21.25Z" fill="#4D6575"/>
</svg>
