<svg width="24" height="24" viewBox="0 0 24 24" fill="none" xmlns="http://www.w3.org/2000/svg">
<path d="M15.75 0.75C15.3522 0.75 14.9706 0.908035 14.6893 1.18934C14.408 1.47064 14.25 1.85218 14.25 2.25V9H2.625C2.12772 9 1.65081 9.19754 1.29917 9.54918C0.947544 9.90081 0.75 10.3777 0.75 10.875V12.375C0.749911 12.6623 0.859714 12.9387 1.0569 13.1476C1.25408 13.3565 1.52371 13.482 1.8105 13.4985C2.25059 15.0506 3.13612 16.4397 4.3575 17.4938C4.76925 17.8493 5.21625 18.1657 5.694 18.4357L4.57275 20.6775C4.503 20.817 4.4025 21.0173 4.32675 21.2272C4.25175 21.435 4.16925 21.7358 4.20825 22.0597C4.25325 22.4347 4.45725 22.779 4.83225 22.9972C5.16225 23.1877 5.56875 23.25 6 23.25H16.5C17.1187 23.25 17.6753 22.9485 18.0615 22.5615C18.4478 22.1753 18.75 21.6187 18.75 21V15C18.75 14.799 18.8662 14.5297 19.0837 14.232C19.8171 14.1499 20.4945 13.8004 20.9864 13.2502C21.4783 12.7001 21.7502 11.988 21.75 11.25V2.25C21.75 1.85218 21.592 1.47064 21.3107 1.18934C21.0294 0.908035 20.6478 0.75 20.25 0.75H15.75ZM7.062 19.0522C7.92695 19.3496 8.83536 19.5009 9.75 19.5C12.915 19.5 15.8355 17.9392 17.25 15.3135V21C17.25 21.1313 17.1765 21.3247 17.001 21.501C16.8247 21.6772 16.6313 21.75 16.5 21.75H6C5.8905 21.75 5.80425 21.744 5.73825 21.735C5.78175 21.6157 5.84475 21.4875 5.9205 21.3353L7.062 19.0522ZM15.375 12.75C15.6255 13.0837 15.9855 13.3313 16.401 13.44C15.6082 16.1903 12.9172 18 9.75 18C8.0325 18 6.465 17.3587 5.274 16.3027C4.21757 15.3678 3.48057 14.1254 3.1665 12.75H15.375ZM15.0375 12H2.25V10.875C2.25 10.7755 2.28951 10.6802 2.35984 10.6098C2.43016 10.5395 2.52554 10.5 2.625 10.5H15V11.625C15 11.7533 15.0127 11.8785 15.0375 12ZM20.25 11.25C20.25 11.6478 20.092 12.0294 19.8107 12.3107C19.5294 12.592 19.1478 12.75 18.75 12.75H16.875C16.5766 12.75 16.2905 12.6315 16.0795 12.4205C15.8685 12.2095 15.75 11.9234 15.75 11.625V2.25H20.25V11.25Z" fill="#4D6575" stroke="#4D6575" stroke-width="0.5"/>
</svg>
