<svg width="24" height="24" viewBox="0 0 24 24" fill="none" xmlns="http://www.w3.org/2000/svg">
<g clip-path="url(#clip0_7173_8805)">
<mask id="mask0_7173_8805" style="mask-type:luminance" maskUnits="userSpaceOnUse" x="0" y="0" width="24" height="24">
<path d="M24 0H0V24H24V0Z" fill="white"/>
</mask>
<g mask="url(#mask0_7173_8805)">
<path d="M12.6915 0.0153932H12.6977C12.893 -0.0162957 13.0976 0.00126123 13.2771 0.0651139C13.4565 0.128966 13.5999 0.235222 13.6831 0.366027L21.2657 12.3445C21.4467 12.6307 21.525 12.9448 21.493 13.2582C21.4612 13.5717 21.3204 13.8743 21.0834 14.1386C20.8464 14.4028 20.5209 14.6201 20.1367 14.7706C19.7525 14.9211 19.3218 15 18.8841 15H12.8721C12.6408 15 12.4189 14.934 12.2554 14.8166C12.0918 14.6992 12 14.54 12 14.3738V0.627751C12.0017 0.484539 12.071 0.345975 12.1966 0.234732C12.3222 0.12349 12.4967 0.0461584 12.6915 0.0153932ZM13.7441 13.7478H18.8841C19.0301 13.7478 19.1737 13.7215 19.3019 13.6715C19.4301 13.6213 19.5387 13.5488 19.6178 13.4607C19.6968 13.3726 19.7439 13.2716 19.7545 13.1671C19.765 13.0626 19.739 12.9578 19.6785 12.8624L13.7441 3.48918V13.7478Z" fill="#4D6575"/>
<path d="M10.8085 0.0153932H10.8023C10.607 -0.0162957 10.4024 0.00126123 10.223 0.0651139C10.0435 0.128966 9.90013 0.235222 9.81694 0.366027L2.23434 12.3445C2.05328 12.6307 1.97509 12.9448 2.00693 13.2582C2.03878 13.5717 2.17963 13.8743 2.4166 14.1386C2.65357 14.4028 2.97908 14.6201 3.36332 14.7706C3.74756 14.9211 4.17825 15 4.61595 15H10.628C10.8592 15 11.0811 14.934 11.2446 14.8166C11.4082 14.6992 11.5 14.54 11.5 14.3738V0.627751C11.4983 0.484539 11.429 0.345975 11.3034 0.234732C11.1778 0.12349 11.0033 0.0461584 10.8085 0.0153932ZM9.75589 13.7478H4.61595C4.46995 13.7478 4.32628 13.7215 4.19809 13.6715C4.0699 13.6213 3.96129 13.5488 3.88223 13.4607C3.80316 13.3726 3.75616 13.2716 3.74556 13.1671C3.73494 13.0626 3.76105 12.9578 3.8215 12.8624L9.75589 3.48918V13.7478Z" fill="#4D6575"/>
<path d="M23 15.739H1C0.734784 15.739 0.48043 15.8444 0.292893 16.0319C0.105357 16.2194 0 16.4738 0 16.739C0 17.0042 0.105357 17.2586 0.292893 17.4461C0.48043 17.6337 0.734784 17.739 1 17.739H23C23.2652 17.739 23.5196 17.6337 23.7071 17.4461C23.8946 17.2586 24 17.0042 24 16.739C24 16.4738 23.8946 16.2194 23.7071 16.0319C23.5196 15.8444 23.2652 15.739 23 15.739Z" fill="#4D6575"/>
<path d="M19.3333 19H4.66667C4.48986 19 4.32029 19.1054 4.19526 19.2929C4.07024 19.4804 4 19.7348 4 20C4 20.2652 4.07024 20.5196 4.19526 20.7071C4.32029 20.8947 4.48986 21 4.66667 21H19.3333C19.5101 21 19.6797 20.8947 19.8047 20.7071C19.9298 20.5196 20 20.2652 20 20C20 19.7348 19.9298 19.4804 19.8047 19.2929C19.6797 19.1054 19.5101 19 19.3333 19Z" fill="#4D6575"/>
<path d="M15 22H9C8.44772 22 8 22.4477 8 23C8 23.5523 8.44772 24 9 24H15C15.5523 24 16 23.5523 16 23C16 22.4477 15.5523 22 15 22Z" fill="#4D6575"/>
</g>
</g>
<defs>
<clipPath id="clip0_7173_8805">
<rect width="24" height="24" fill="white"/>
</clipPath>
</defs>
</svg>
