<svg width="24" height="24" viewBox="0 0 24 24" fill="none" xmlns="http://www.w3.org/2000/svg">
<g clip-path="url(#clip0_7173_8778)">
<path d="M15 20.5714C17.5387 18.7753 19.1638 15.634 18.9848 12.5353C18.8252 9.43141 17 4.00008 17 4.00008C17 4.00008 16.5 1.99988 15.5 1.99988C15 1.99969 12.7841 1.97838 12 1.99996L10.5 1.99998C9.71733 2.01757 9 2 8.5 1.9999C8 1.99988 7.34197 3.25795 7.08023 3.74189C5.52525 6.67628 4.83119 9.77712 5.03464 12.8807C5.21097 15.9813 6.26001 18.9065 9 20.5714C9.349 20.8327 10.0135 21.1483 10.5 21.2857C10.9865 21.4231 11.5 21.6428 12 21.6428C12.5 21.6428 13.0308 21.4469 13.5 21.2857C13.9692 21.1244 14.6823 20.8493 15 20.5714ZM6.98906 12.8343C6.79508 9.89448 9 3.99998 9 3.99998C9 3.99998 9 3.9999 9.5 3.99998C10 3.99998 10 3.9999 10.5 3.99998H11C11 3.99998 11.6175 3.99998 12 3.99998C12.1913 3.99999 13 3.99998 13 3.99998C13.3527 4.01493 13 3.99998 13.5 3.99998L15 3.9999C15 3.9999 16.8786 9.6427 17.027 12.584C17.2152 15.8408 15.473 18.2811 13.7802 19.4786C12.8139 20.1623 11.0427 20.1122 10 19.4786C8.17262 18.3683 7.17787 16.0905 6.98906 12.8343Z" fill="#4D6575"/>
<path d="M12.1921 6.3738C12.086 6.25634 11.914 6.25634 11.808 6.3738L10.0796 8.28777C9.97348 8.40522 9.97348 8.59564 10.0796 8.71309C10.1856 8.83055 10.3576 8.83055 10.4636 8.71309L12 7.01179L13.5364 8.71309C13.6424 8.83055 13.8144 8.83055 13.9204 8.71309C14.0265 8.59564 14.0265 8.40522 13.9204 8.28777L12.1921 6.3738ZM11.808 17.6262C11.914 17.7436 12.086 17.7436 12.1921 17.6262L13.9204 15.7122C14.0265 15.5948 14.0265 15.4043 13.9204 15.2869C13.8144 15.1694 13.6424 15.1694 13.5364 15.2869L12 16.9882L10.4636 15.2869C10.3576 15.1694 10.1856 15.1694 10.0796 15.2869C9.97348 15.4043 9.97348 15.5948 10.0796 15.7122L11.808 17.6262ZM11.7284 6.58646V17.4135H12.2716V6.58646H11.7284Z" fill="#4D6575"/>
</g>
<defs>
<clipPath id="clip0_7173_8778">
<rect width="14" height="20" fill="white" transform="translate(5 2)"/>
</clipPath>
</defs>
</svg>
