<svg width="24" height="25" viewBox="0 0 24 25" fill="none" xmlns="http://www.w3.org/2000/svg">
<g id="fi-rr-align-justify" clip-path="url(#clip0_820_430)">
<path id="Vector" d="M1 6.39495H23C23.2652 6.39495 23.5196 6.2896 23.7071 6.10206C23.8946 5.91453 24 5.66017 24 5.39496C24 5.12974 23.8946 4.87539 23.7071 4.68785C23.5196 4.50032 23.2652 4.39496 23 4.39496H1C0.734784 4.39496 0.48043 4.50032 0.292893 4.68785C0.105357 4.87539 0 5.12974 0 5.39496C0 5.66017 0.105357 5.91453 0.292893 6.10206C0.48043 6.2896 0.734784 6.39495 1 6.39495Z" fill="#374957"/>
<path id="Vector_2" d="M23 9.39496H1C0.734784 9.39496 0.48043 9.50032 0.292893 9.68785C0.105357 9.87539 0 10.1297 0 10.395C0 10.6602 0.105357 10.9145 0.292893 11.1021C0.48043 11.2896 0.734784 11.395 1 11.395H23C23.2652 11.395 23.5196 11.2896 23.7071 11.1021C23.8946 10.9145 24 10.6602 24 10.395C24 10.1297 23.8946 9.87539 23.7071 9.68785C23.5196 9.50032 23.2652 9.39496 23 9.39496Z" fill="#374957"/>
<path id="Vector_3" d="M23 19.3949H1C0.734784 19.3949 0.48043 19.5003 0.292893 19.6878C0.105357 19.8754 0 20.1297 0 20.3949C0 20.6602 0.105357 20.9145 0.292893 21.102C0.48043 21.2896 0.734784 21.3949 1 21.3949H23C23.2652 21.3949 23.5196 21.2896 23.7071 21.102C23.8946 20.9145 24 20.6602 24 20.3949C24 20.1297 23.8946 19.8754 23.7071 19.6878C23.5196 19.5003 23.2652 19.3949 23 19.3949Z" fill="#374957"/>
<path id="Vector_4" d="M23 14.395H1C0.734784 14.395 0.48043 14.5003 0.292893 14.6879C0.105357 14.8754 0 15.1298 0 15.395C0 15.6602 0.105357 15.9146 0.292893 16.1021C0.48043 16.2896 0.734784 16.395 1 16.395H23C23.2652 16.395 23.5196 16.2896 23.7071 16.1021C23.8946 15.9146 24 15.6602 24 15.395C24 15.1298 23.8946 14.8754 23.7071 14.6879C23.5196 14.5003 23.2652 14.395 23 14.395Z" fill="#374957"/>
</g>
<defs>
<clipPath id="clip0_820_430">
<rect width="24" height="24" fill="white" transform="translate(0 0.394958)"/>
</clipPath>
</defs>
</svg>
