<svg width="24" height="25" viewBox="0 0 24 25" fill="none" xmlns="http://www.w3.org/2000/svg">
<g id="mdi:alpha-c-circle-outline">
<path id="Vector" d="M11 7.86426H13C13.5304 7.86426 14.0391 8.07497 14.4142 8.45004C14.7893 8.82512 15 9.33382 15 9.86426V10.8643H13V9.86426H11V15.8643H13V14.8643H15V15.8643C15 16.3947 14.7893 16.9034 14.4142 17.2785C14.0391 17.6535 13.5304 17.8643 13 17.8643H11C10.4696 17.8643 9.96086 17.6535 9.58579 17.2785C9.21071 16.9034 9 16.3947 9 15.8643V9.86426C9 9.33382 9.21071 8.82512 9.58579 8.45004C9.96086 8.07497 10.4696 7.86426 11 7.86426ZM12 2.86426C13.3132 2.86426 14.6136 3.12292 15.8268 3.62546C17.0401 4.12801 18.1425 4.8646 19.0711 5.79319C19.9997 6.72178 20.7362 7.82417 21.2388 9.03742C21.7413 10.2507 22 11.551 22 12.8643C22 15.5164 20.9464 18.06 19.0711 19.9353C17.1957 21.8107 14.6522 22.8643 12 22.8643C10.6868 22.8643 9.38642 22.6056 8.17317 22.1031C6.95991 21.6005 5.85752 20.8639 4.92893 19.9353C3.05357 18.06 2 15.5164 2 12.8643C2 10.2121 3.05357 7.66855 4.92893 5.79319C6.8043 3.91783 9.34784 2.86426 12 2.86426ZM12 4.86426C9.87827 4.86426 7.84344 5.70711 6.34315 7.2074C4.84285 8.70769 4 10.7425 4 12.8643C4 14.986 4.84285 17.0208 6.34315 18.5211C7.84344 20.0214 9.87827 20.8643 12 20.8643C14.1217 20.8643 16.1566 20.0214 17.6569 18.5211C19.1571 17.0208 20 14.986 20 12.8643C20 10.7425 19.1571 8.70769 17.6569 7.2074C16.1566 5.70711 14.1217 4.86426 12 4.86426Z" fill="#C6C7CC"/>
</g>
</svg>
