<svg width="24" height="24" viewBox="0 0 24 24" fill="none" xmlns="http://www.w3.org/2000/svg">
<g clip-path="url(#clip0_4315_1719)">
<path d="M11.5625 5.45863L12 6.24902L12.4374 5.45863C12.9402 4.55028 13.6737 3.79067 14.564 3.25652C15.45 2.7249 16.4601 2.43534 17.493 2.41669C19.1506 2.4926 20.7115 3.21943 21.8366 4.43966C22.9649 5.66351 23.5631 7.2842 23.5003 8.94765L23.5 8.95707V8.9665C23.5 11.0755 22.3831 13.3449 20.7074 15.5461C19.0406 17.7355 16.8716 19.7917 14.8786 21.4634L14.8783 21.4637C14.0722 22.1411 13.0529 22.5125 12 22.5125C10.947 22.5125 9.92776 22.1411 9.12163 21.4637L9.12129 21.4634C7.1283 19.7917 4.95928 17.7355 3.29254 15.5461C1.6168 13.3449 0.499958 11.0755 0.499958 8.9665V8.95707L0.499603 8.94765C0.436834 7.2842 1.03497 5.66351 2.16334 4.43966C3.28838 3.21943 4.84933 2.4926 6.50691 2.41669C7.53986 2.43534 8.54991 2.7249 9.43595 3.25652C10.3262 3.79067 11.0597 4.55028 11.5625 5.45863ZM14.237 20.699L14.415 20.5491V20.5451C16.9214 18.4252 18.9133 16.3371 20.2914 14.4032C21.6892 12.4415 22.4954 10.5825 22.4999 8.98003C22.5716 7.5876 22.0917 6.22279 21.1639 5.18156C20.2331 4.13699 18.927 3.50284 17.5305 3.41744L17.5 3.41557L17.4694 3.41744C16.0729 3.50284 14.7668 4.13699 13.836 5.18156C12.9088 6.22212 12.4289 7.58586 12.4998 8.97736C12.497 9.10604 12.4447 9.22885 12.3535 9.32006C12.2597 9.41383 12.1326 9.4665 12 9.4665C11.8673 9.4665 11.7402 9.41383 11.6464 9.32006C11.5552 9.22885 11.5029 9.10604 11.5001 8.97736C11.571 7.58586 11.0911 6.22212 10.1639 5.18156C9.23308 4.13699 7.92699 3.50284 6.53048 3.41744L6.49996 3.41557L6.46944 3.41744C5.07292 3.50284 3.76683 4.13699 2.83602 5.18156C1.9082 6.22279 1.42829 7.58761 1.49998 8.98004C1.50449 10.5825 2.31069 12.4415 3.70848 14.4036C5.11906 16.3837 7.17287 18.5258 9.76324 20.6992C10.3893 21.2264 11.1815 21.5154 12 21.5154C12.8186 21.5154 13.6109 21.2262 14.237 20.699Z" fill="#4D6575" stroke="#4D6575"/>
</g>
<defs>
<clipPath id="clip0_4315_1719">
<rect width="24" height="24" fill="white"/>
</clipPath>
</defs>
</svg>
