<svg xmlns="http://www.w3.org/2000/svg" width="24" height="24" viewBox="0 0 24 24" fill="none">
<path d="M15.2907 18.2108C15.3844 18.1178 15.4588 18.0072 15.5096 17.8854C15.5603 17.7635 15.5865 17.6328 15.5865 17.5008C15.5865 17.3688 15.5603 17.2381 15.5096 17.1162C15.4588 16.9944 15.3844 16.8838 15.2907 16.7908L10.7107 12.2108C10.617 12.1178 10.5426 12.0072 10.4918 11.8854C10.441 11.7635 10.4149 11.6328 10.4149 11.5008C10.4149 11.3688 10.441 11.2381 10.4918 11.1162C10.5426 10.9944 10.617 10.8838 10.7107 10.7908L15.2907 6.21079C15.3844 6.11783 15.4588 6.00723 15.5096 5.88537C15.5603 5.76351 15.5865 5.6328 15.5865 5.50079C15.5865 5.36878 15.5603 5.23808 15.5096 5.11622C15.4588 4.99436 15.3844 4.88376 15.2907 4.79079C15.1033 4.60454 14.8499 4.5 14.5857 4.5C14.3215 4.5 14.0681 4.60454 13.8807 4.79079L9.2907 9.38079C8.7289 9.94329 8.41334 10.7058 8.41334 11.5008C8.41334 12.2958 8.7289 13.0583 9.2907 13.6208L13.8807 18.2108C14.0681 18.397 14.3215 18.5016 14.5857 18.5016C14.8499 18.5016 15.1033 18.397 15.2907 18.2108Z" fill="#e7801a"/>
</svg>