<svg width="277" height="38" viewBox="0 0 277 38" fill="none" xmlns="http://www.w3.org/2000/svg">
<path d="M35.9275 0.067749H1.07246C0.480158 0.067749 0 0.547906 0 1.14021V36.8598C0 37.4521 0.480159 37.9322 1.07246 37.9322H22.327C22.9193 37.9322 23.3994 37.4521 23.3994 36.8598V24.1742C23.3994 15.3398 28.0493 7.15745 35.6391 2.63613L36.4764 2.13731C36.8011 1.9439 37 1.59387 37 1.21594V1.14021C37 0.547907 36.5198 0.067749 35.9275 0.067749Z" fill="#E7801A"/>
<path d="M25.0701 29.1691V23.3194C25.0701 15.7664 29.0465 8.77116 35.5364 4.9073C36.1818 4.52305 37 4.98813 37 5.73927V28.9732C37 29.3551 36.6903 29.6648 36.3084 29.6648H25.5657C25.292 29.6648 25.0701 29.4429 25.0701 29.1691Z" fill="#E7801A"/>
<path d="M25.7621 31.3113L36.3088 31.3178C36.6906 31.318 37 31.6276 37 32.0094V37.0752C37 37.4571 36.6903 37.7668 36.3084 37.7668H25.7617C25.3797 37.7668 25.0701 37.4571 25.0701 37.0752V32.0029C25.0701 31.6208 25.38 31.3111 25.7621 31.3113Z" fill="#E7801A"/>
<path d="M52.3641 8.76564H56.0074L65.9599 22.865V8.76564H69.9587V29.5H66.3154L56.3629 15.4006V29.5H52.3641V8.76564ZM79.2232 29.737C77.9792 29.737 76.8733 29.5 75.9057 29.0261C74.9579 28.5324 74.2174 27.8413 73.6842 26.9526C73.1708 26.064 72.914 25.0372 72.914 23.8721V20.4065C72.914 19.2414 73.1806 18.2146 73.7138 17.326C74.247 16.4176 74.9875 15.7166 75.9353 15.2229C76.9029 14.7292 78.0088 14.4824 79.2528 14.4824H81.9187C83.1627 14.4824 84.2587 14.7292 85.2066 15.2229C86.1742 15.7166 86.9246 16.4176 87.4577 17.326C87.9909 18.2146 88.2575 19.2414 88.2575 20.4065V23.8721C88.2575 25.0372 87.9909 26.064 87.4577 26.9526C86.9246 27.8413 86.1742 28.5324 85.2066 29.0261C84.2587 29.5 83.1529 29.737 81.8891 29.737H79.2232ZM81.8298 26.2714C82.5605 26.2714 83.143 26.0245 83.5774 25.5309C84.0119 25.0174 84.2291 24.3559 84.2291 23.5463V20.6731C84.2291 19.8635 84.0119 19.2118 83.5774 18.7181C83.143 18.2047 82.5703 17.948 81.8594 17.948H79.3121C78.6012 17.948 78.0285 18.2047 77.5941 18.7181C77.1597 19.2118 76.9424 19.8635 76.9424 20.6731V23.5463C76.9424 24.3559 77.1597 25.0174 77.5941 25.5309C78.0285 26.0245 78.5913 26.2714 79.2825 26.2714H81.8298ZM91.0936 14.7194H94.8258V16.6151C95.201 16.0424 95.7342 15.5784 96.4253 15.2229C97.1362 14.8477 97.8767 14.6601 98.6469 14.6601H100.661V18.1553H98.6469C97.6003 18.1553 96.7512 18.4713 96.0995 19.1032C95.4479 19.7351 95.122 20.5447 95.122 21.5321V29.5H91.0936V14.7194ZM107.676 29.737C105.879 29.737 104.437 29.263 103.351 28.3152C102.265 27.3673 101.722 26.1233 101.722 24.583H105.691C105.691 25.1162 105.869 25.5506 106.224 25.8863C106.599 26.2022 107.083 26.3602 107.676 26.3602H110.341C111.526 26.3602 112.119 26.0344 112.119 25.3827V24.8792C112.119 24.6817 112.02 24.504 111.822 24.346C111.625 24.1683 111.358 24.0498 111.023 23.9906L105.898 23.102C104.694 22.9045 103.736 22.4799 103.025 21.8283C102.334 21.1569 101.988 20.3769 101.988 19.4883V18.5108C101.988 17.247 102.502 16.2596 103.529 15.5487C104.575 14.8378 106.027 14.4824 107.883 14.4824H110.193C111.852 14.4824 113.185 14.9267 114.192 15.8153C115.219 16.6842 115.732 17.8394 115.732 19.2809H111.763C111.763 18.8465 111.615 18.5009 111.319 18.2442C111.042 17.9875 110.667 17.8591 110.193 17.8591H107.942C106.659 17.8591 106.017 18.1553 106.017 18.7478V19.2217C106.017 19.4389 106.096 19.6265 106.254 19.7845C106.432 19.9227 106.678 20.0214 106.994 20.0807L112.385 21.0582C113.511 21.2556 114.419 21.6802 115.11 22.3318C115.801 22.9637 116.147 23.6845 116.147 24.4941V25.5605C116.147 26.844 115.614 27.861 114.548 28.6114C113.501 29.3618 112.099 29.737 110.341 29.737H107.676ZM124.436 29.737C123.192 29.737 122.086 29.5099 121.118 29.0557C120.17 28.5818 119.43 27.9301 118.897 27.1007C118.363 26.2516 118.097 25.284 118.097 24.1979V20.3769C118.097 19.2118 118.363 18.185 118.897 17.2963C119.43 16.4077 120.17 15.7166 121.118 15.2229C122.086 14.7292 123.192 14.4824 124.436 14.4824H126.805C128.701 14.4824 130.222 15.0156 131.367 16.0819C132.512 17.1482 133.085 18.57 133.085 20.3473V23.487H122.125V24.1979C122.125 24.8496 122.333 25.3729 122.747 25.7678C123.162 26.1628 123.725 26.3602 124.436 26.3602H126.746C127.437 26.3602 127.99 26.2121 128.405 25.9159C128.839 25.6 129.057 25.1952 129.057 24.7015H133.026C133.026 25.6888 132.759 26.5676 132.226 27.3377C131.693 28.1078 130.942 28.7002 129.975 29.1149C129.027 29.5296 127.931 29.737 126.687 29.737H124.436ZM129.116 20.5842V20.3473C129.116 19.5771 128.908 18.965 128.494 18.5108C128.079 18.0369 127.526 17.7999 126.835 17.7999H124.436C123.725 17.7999 123.152 18.0467 122.718 18.5404C122.283 19.0341 122.066 19.6857 122.066 20.4954V20.5842H129.116ZM150.241 21.4432L142.57 8.76564H147.013L152.285 17.6814L157.558 8.76564H162.001L154.329 21.4432V29.5H150.241V21.4432ZM165.197 29.737C163.657 29.737 162.412 29.3519 161.465 28.5818C160.517 27.8116 160.043 26.7947 160.043 25.5309V24.4349C160.043 23.1908 160.536 22.1936 161.524 21.4432C162.511 20.6731 163.814 20.288 165.434 20.288H167.241C167.754 20.288 168.307 20.3571 168.899 20.4954C169.492 20.6336 170.035 20.8212 170.528 21.0582V19.5179C170.528 19.0242 170.361 18.6293 170.025 18.3331C169.709 18.0171 169.284 17.8591 168.751 17.8591H166.204C165.651 17.8591 165.207 17.9875 164.871 18.2442C164.535 18.5009 164.367 18.8465 164.367 19.2809H160.457C160.457 17.8394 160.981 16.6842 162.027 15.8153C163.094 14.9267 164.486 14.4824 166.204 14.4824H168.751C170.489 14.4824 171.891 14.9465 172.957 15.8746C174.024 16.7829 174.557 17.9974 174.557 19.5179V29.5H170.825V27.7228C170.351 28.3349 169.768 28.8286 169.077 29.2038C168.386 29.5592 167.705 29.737 167.033 29.737H165.197ZM167.329 26.6564C168.06 26.6564 168.712 26.4688 169.284 26.0936C169.857 25.7184 170.272 25.2149 170.528 24.583V24.0794C170.213 23.8425 169.768 23.6549 169.196 23.5167C168.643 23.3784 168.05 23.3093 167.418 23.3093H165.552C165.078 23.3093 164.693 23.4278 164.397 23.6648C164.101 23.9017 163.953 24.2177 163.953 24.6126V25.3827C163.953 25.7579 164.111 26.064 164.427 26.301C164.762 26.5379 165.197 26.6564 165.73 26.6564H167.329ZM183.531 29.737C182.287 29.737 181.182 29.4901 180.214 28.9965C179.266 28.5028 178.526 27.8116 177.992 26.923C177.479 26.0344 177.222 25.0076 177.222 23.8425V20.3769C177.222 19.2118 177.479 18.185 177.992 17.2963C178.526 16.4077 179.266 15.7166 180.214 15.2229C181.162 14.7292 182.258 14.4824 183.502 14.4824H185.842C187.027 14.4824 188.073 14.7194 188.982 15.1933C189.89 15.6672 190.591 16.3386 191.085 17.2075C191.578 18.0566 191.825 19.044 191.825 20.1695H187.826C187.826 19.4981 187.639 18.965 187.264 18.57C186.908 18.1553 186.434 17.948 185.842 17.948H183.561C182.87 17.948 182.307 18.2047 181.873 18.7181C181.458 19.2118 181.251 19.8635 181.251 20.6731V23.5463C181.251 24.3559 181.468 25.0174 181.902 25.5309C182.337 26.0245 182.9 26.2714 183.591 26.2714H185.871C186.503 26.2714 187.007 26.0443 187.382 25.5901C187.777 25.1359 187.974 24.5336 187.974 23.7832H191.973C191.973 25.5802 191.41 27.0217 190.285 28.1078C189.179 29.1939 187.708 29.737 185.871 29.737H183.531ZM194.389 8.76564H198.418V16.2004C198.852 15.687 199.385 15.2723 200.017 14.9563C200.669 14.6404 201.291 14.4824 201.883 14.4824H203.72C205.3 14.4824 206.563 14.9761 207.511 15.9634C208.479 16.9508 208.963 18.2541 208.963 19.8733V29.5H204.934V20.0214C204.934 19.4093 204.766 18.9156 204.431 18.5404C204.115 18.1652 203.7 17.9776 203.187 17.9776H201.35C200.659 17.9776 200.037 18.2343 199.484 18.7478C198.951 19.2414 198.596 19.8931 198.418 20.7027V29.5H194.389V8.76564ZM218.665 29.5C216.928 29.5 215.654 29.1051 214.844 28.3152C214.035 27.5253 213.63 26.301 213.63 24.6422V18.1553H211.023V14.7194H213.748V10.2467H217.658V14.7194H221.509V18.1553H217.658V24.4645C217.658 25.0174 217.757 25.4222 217.954 25.679C218.172 25.9357 218.507 26.064 218.961 26.064H221.509V29.5H218.665ZM240.058 29.737C238.538 29.737 237.195 29.4111 236.03 28.7595C234.885 28.1078 233.996 27.1896 233.364 26.0048C232.732 24.8002 232.416 23.4179 232.416 21.8579V16.4077C232.416 14.8477 232.732 13.4753 233.364 12.2905C234.016 11.0859 234.924 10.1578 236.089 9.50615C237.274 8.8545 238.637 8.52867 240.177 8.52867H243.317C244.798 8.52867 246.101 8.84462 247.227 9.47653C248.352 10.1084 249.221 10.997 249.833 12.1424C250.465 13.268 250.781 14.5811 250.781 16.0819H246.753C246.753 14.8971 246.437 13.9492 245.805 13.2383C245.173 12.5077 244.344 12.1424 243.317 12.1424H240.177C239.071 12.1424 238.182 12.5571 237.511 13.3864C236.84 14.1961 236.504 15.2624 236.504 16.5855V21.6802C236.504 23.0032 236.83 24.0794 237.481 24.9088C238.133 25.7184 238.992 26.1233 240.058 26.1233H243.257C244.304 26.1233 245.153 25.7184 245.805 24.9088C246.476 24.0992 246.812 23.0329 246.812 21.7098H250.84C250.84 23.3093 250.524 24.7212 249.892 25.9455C249.261 27.1501 248.372 28.0881 247.227 28.7595C246.081 29.4111 244.758 29.737 243.257 29.737H240.058ZM259 29.737C257.756 29.737 256.65 29.5 255.683 29.0261C254.735 28.5324 253.994 27.8413 253.461 26.9526C252.948 26.064 252.691 25.0372 252.691 23.8721V20.4065C252.691 19.2414 252.958 18.2146 253.491 17.326C254.024 16.4176 254.764 15.7166 255.712 15.2229C256.68 14.7292 257.786 14.4824 259.03 14.4824H261.696C262.94 14.4824 264.036 14.7292 264.983 15.2229C265.951 15.7166 266.701 16.4176 267.235 17.326C267.768 18.2146 268.034 19.2414 268.034 20.4065V23.8721C268.034 25.0372 267.768 26.064 267.235 26.9526C266.701 27.8413 265.951 28.5324 264.983 29.0261C264.036 29.5 262.93 29.737 261.666 29.737H259ZM261.607 26.2714C262.337 26.2714 262.92 26.0245 263.354 25.5309C263.789 25.0174 264.006 24.3559 264.006 23.5463V20.6731C264.006 19.8635 263.789 19.2118 263.354 18.7181C262.92 18.2047 262.347 17.948 261.636 17.948H259.089C258.378 17.948 257.805 18.2047 257.371 18.7181C256.937 19.2118 256.719 19.8635 256.719 20.6731V23.5463C256.719 24.3559 256.937 25.0174 257.371 25.5309C257.805 26.0245 258.368 26.2714 259.059 26.2714H261.607ZM272.244 29.7962C271.514 29.7962 270.921 29.579 270.467 29.1446C270.032 28.6904 269.815 28.098 269.815 27.3673C269.815 26.6367 270.032 26.0541 270.467 25.6197C270.921 25.1655 271.514 24.9384 272.244 24.9384C272.975 24.9384 273.557 25.1655 273.992 25.6197C274.446 26.0541 274.673 26.6367 274.673 27.3673C274.673 28.098 274.446 28.6904 273.992 29.1446C273.557 29.579 272.975 29.7962 272.244 29.7962Z" fill="white"/>
</svg>
