<svg width="26" height="25" viewBox="0 0 26 25" fill="none" xmlns="http://www.w3.org/2000/svg">
<path id="Star 1" d="M11.7929 1.7151C12.1728 0.545743 13.8272 0.545747 14.2071 1.7151L16.3073 8.17871C16.4772 8.70166 16.9645 9.05573 17.5144 9.05573H24.3106C25.5402 9.05573 26.0514 10.6291 25.0566 11.3518L19.5584 15.3465C19.1135 15.6697 18.9274 16.2426 19.0973 16.7656L21.1975 23.2292C21.5774 24.3985 20.239 25.3709 19.2443 24.6482L13.746 20.6535C13.3012 20.3303 12.6988 20.3303 12.254 20.6535L6.75569 24.6482C5.76097 25.3709 4.4226 24.3985 4.80255 23.2292L6.9027 16.7656C7.07262 16.2426 6.88647 15.6697 6.44162 15.3465L0.943348 11.3518C-0.0513651 10.6291 0.459853 9.05573 1.68939 9.05573H8.48563C9.03549 9.05573 9.52282 8.70166 9.69274 8.17871L11.7929 1.7151Z" fill="#FFD700"/>
</svg>
