<svg width="30" height="24" viewBox="0 0 30 24" fill="none" xmlns="http://www.w3.org/2000/svg">
<path id="Vector" d="M20 12.5L27.3625 12.5C27.1302 14.0471 26.5778 15.5287 25.7405 16.8502C24.9033 18.1717 23.7996 19.3041 22.5 20.175L20.2625 21.675L21.6375 23.75L23.875 22.25C25.7584 20.9949 27.3029 19.2943 28.3713 17.2991C29.4398 15.3039 29.9992 13.0758 30 10.8125L30 2.5C30 1.83696 29.7366 1.20107 29.2678 0.732233C28.7989 0.263393 28.163 -1.60592e-07 27.5 -2.18557e-07L20 -8.74228e-07C19.337 -9.32193e-07 18.7011 0.263392 18.2322 0.732232C17.7634 1.20107 17.5 1.83696 17.5 2.5L17.5 10C17.5 10.663 17.7634 11.2989 18.2322 11.7678C18.7011 12.2366 19.337 12.5 20 12.5ZM2.5 12.5L9.8625 12.5C9.63019 14.0471 9.07777 15.5287 8.24051 16.8502C7.40326 18.1717 6.29959 19.3041 5 20.175L2.7625 21.675L4.125 23.75L6.375 22.25C8.2584 20.9949 9.80286 19.2943 10.8713 17.2991C11.9398 15.3039 12.4992 13.0758 12.5 10.8125L12.5 2.5C12.5 1.83696 12.2366 1.20107 11.7678 0.732231C11.2989 0.263392 10.663 -1.69049e-06 10 -1.74846e-06L2.5 -2.40413e-06C1.83696 -2.46209e-06 1.20108 0.263391 0.732235 0.73223C0.263395 1.20107 1.9157e-06 1.83696 1.85773e-06 2.5L1.20206e-06 10C1.1441e-06 10.663 0.263394 11.2989 0.732234 11.7678C1.20108 12.2366 1.83696 12.5 2.5 12.5Z" fill="black"/>
</svg>
