<svg xmlns="http://www.w3.org/2000/svg" width="26" height="25" viewBox="0 0 26 25" fill="none">
<path d="M12.2684 1.86961C12.4987 1.16091 13.5013 1.16091 13.7316 1.86961L15.8317 8.33322C16.0686 9.06218 16.7479 9.55573 17.5144 9.55573H24.3106C25.0558 9.55573 25.3656 10.5093 24.7628 10.9473L19.2645 14.942C18.6444 15.3925 18.3849 16.1911 18.6218 16.9201L20.7219 23.3837C20.9522 24.0924 20.1411 24.6817 19.5382 24.2437L14.0399 20.249C13.4198 19.7985 12.5802 19.7985 11.9601 20.249L6.4618 24.2437C5.85894 24.6817 5.0478 24.0924 5.27808 23.3837L7.37823 16.9201C7.61508 16.1911 7.35561 15.3925 6.73552 14.942L1.23724 10.9473C0.634388 10.5093 0.944211 9.55573 1.68939 9.55573H8.48563C9.2521 9.55573 9.93141 9.06218 10.1683 8.33322L12.2684 1.86961Z" stroke="#FFD700"/>
</svg>